<?xml version="1.0" encoding="UTF-8" standalone="no"?>
<svg
   width="24"
   height="24"
   viewBox="0 0 24 24"
   fill="none"
   version="1.1"
   id="svg32"
   sodipodi:docname="cursos.svg"
   xmlns:inkscape="http://www.inkscape.org/namespaces/inkscape"
   xmlns:sodipodi="http://sodipodi.sourceforge.net/DTD/sodipodi-0.dtd"
   xmlns="http://www.w3.org/2000/svg"
   xmlns:svg="http://www.w3.org/2000/svg">
  <sodipodi:namedview
     id="namedview34"
     pagecolor="#505050"
     bordercolor="#eeeeee"
     borderopacity="1"
     inkscape:showpageshadow="0"
     inkscape:pageopacity="0"
     inkscape:pagecheckerboard="0"
     inkscape:deskcolor="#505050"
     showgrid="false" />
  <path
     d="M 17.5,4.5 C 15.55,4.5 13.45,4.9 12,6 10.55,4.9 8.45,4.5 6.5,4.5 5.05,4.5 3.51,4.72 2.22,5.29 1.49,5.62 1,6.33 1,7.14 v 11.28 c 0,1.3 1.22,2.26 2.48,1.94 C 4.46,20.11 5.5,20 6.5,20 c 1.56,0 3.22,0.26 4.56,0.92 0.6,0.3 1.28,0.3 1.87,0 1.34,-0.67 3,-0.92 4.56,-0.92 1,0 2.04,0.11 3.02,0.36 1.26,0.33 2.48,-0.63 2.48,-1.94 V 7.14 C 22.99,6.33 22.5,5.62 21.77,5.29 20.49,4.72 18.95,4.5 17.5,4.5 Z M 21,17.23 c 0,0.63 -0.58,1.09 -1.2,0.98 -0.75,-0.14 -1.53,-0.2 -2.3,-0.2 -1.7,0 -4.15,0.65 -5.5,1.5 V 8 c 1.35,-0.85 3.8,-1.5 5.5,-1.5 0.92,0 1.83,0.09 2.7,0.28 0.46,0.1 0.8,0.51 0.8,0.98 z"
     fill="url(#paint0_linear)"
     id="path2"
     style="fill:url(#paint0_linear);filter:url(#filter714)" />
  <path
     d="m 13.9799,11.01 c -0.32,0 -0.61,-0.2 -0.71,-0.52 -0.13,-0.39 0.09,-0.82002 0.48,-0.94002 1.54,-0.5 3.53,-0.66 5.36,-0.45 0.41,0.05 0.71,0.42 0.66,0.83 -0.05,0.41002 -0.42,0.71002 -0.83,0.66002 -1.62,-0.19 -3.39,-0.04 -4.73,0.39 -0.08,0.01 -0.16,0.03 -0.23,0.03 z"
     fill="url(#paint1_linear)"
     id="path4"
     style="fill:url(#paint1_linear);filter:url(#filter720)" />
  <path
     d="m 13.9799,13.67 c -0.32,0 -0.61,-0.2 -0.71,-0.52 -0.13,-0.39 0.09,-0.82 0.48,-0.94 1.53,-0.5 3.53,-0.66 5.36,-0.45 0.41,0.05 0.71,0.42 0.66,0.83 -0.05,0.41 -0.42,0.71 -0.83,0.66 -1.62,-0.19 -3.39,-0.04 -4.73,0.39 -0.08,0.02 -0.16,0.03 -0.23,0.03 z"
     fill="url(#paint2_linear)"
     id="path6"
     style="fill:url(#paint2_linear);filter:url(#filter726)" />
  <path
     d="m 13.9799,16.33 c -0.32,0 -0.61,-0.2 -0.71,-0.52 -0.13,-0.39 0.09,-0.82 0.48,-0.94 1.53,-0.5 3.53,-0.66 5.36,-0.45 0.41,0.05 0.71,0.42 0.66,0.83 -0.05,0.41 -0.42,0.7 -0.83,0.66 -1.62,-0.19 -3.39,-0.04 -4.73,0.39 -0.08,0.02 -0.16,0.03 -0.23,0.03 z"
     fill="url(#paint3_linear)"
     id="path8"
     style="fill:url(#paint3_linear);filter:url(#filter732)" />
  <defs
     id="defs30">
    <linearGradient
       id="paint0_linear"
       x1="11.995"
       y1="4.5"
       x2="11.995"
       y2="21.145"
       gradientUnits="userSpaceOnUse">
      <stop
         stop-color="#B6F829"
         id="stop10" />
      <stop
         offset="1"
         stop-color="#67DD0A"
         id="stop12" />
    </linearGradient>
    <linearGradient
       id="paint1_linear"
       x1="16.503901"
       y1="9.0098896"
       x2="16.503901"
       y2="11.01"
       gradientUnits="userSpaceOnUse">
      <stop
         stop-color="#B6F829"
         id="stop15" />
      <stop
         offset="1"
         stop-color="#67DD0A"
         id="stop17" />
    </linearGradient>
    <linearGradient
       id="paint2_linear"
       x1="16.503901"
       y1="11.6699"
       x2="16.503901"
       y2="13.67"
       gradientUnits="userSpaceOnUse">
      <stop
         stop-color="#B6F829"
         id="stop20" />
      <stop
         offset="1"
         stop-color="#67DD0A"
         id="stop22" />
    </linearGradient>
    <linearGradient
       id="paint3_linear"
       x1="16.503901"
       y1="14.33"
       x2="16.503901"
       y2="16.33"
       gradientUnits="userSpaceOnUse">
      <stop
         stop-color="#B6F829"
         id="stop25" />
      <stop
         offset="1"
         stop-color="#67DD0A"
         id="stop27" />
    </linearGradient>
    <filter
       style="color-interpolation-filters:sRGB"
       inkscape:label="Color Shift"
       id="filter714"
       x="0"
       y="0"
       width="1"
       height="1">
      <feColorMatrix
         type="hueRotate"
         values="169"
         result="color1"
         id="feColorMatrix710" />
      <feColorMatrix
         type="saturate"
         values="1"
         result="color2"
         id="feColorMatrix712" />
    </filter>
    <filter
       style="color-interpolation-filters:sRGB"
       inkscape:label="Color Shift"
       id="filter720"
       x="0"
       y="0"
       width="1"
       height="1">
      <feColorMatrix
         type="hueRotate"
         values="169"
         result="color1"
         id="feColorMatrix716" />
      <feColorMatrix
         type="saturate"
         values="1"
         result="color2"
         id="feColorMatrix718" />
    </filter>
    <filter
       style="color-interpolation-filters:sRGB"
       inkscape:label="Color Shift"
       id="filter726"
       x="0"
       y="0"
       width="1"
       height="1">
      <feColorMatrix
         type="hueRotate"
         values="169"
         result="color1"
         id="feColorMatrix722" />
      <feColorMatrix
         type="saturate"
         values="1"
         result="color2"
         id="feColorMatrix724" />
    </filter>
    <filter
       style="color-interpolation-filters:sRGB"
       inkscape:label="Color Shift"
       id="filter732"
       x="0"
       y="0"
       width="1"
       height="1">
      <feColorMatrix
         type="hueRotate"
         values="169"
         result="color1"
         id="feColorMatrix728" />
      <feColorMatrix
         type="saturate"
         values="1"
         result="color2"
         id="feColorMatrix730" />
    </filter>
  </defs>
</svg>
